<?xml version="1.0" encoding="UTF-8"?><svg id="Layer_2" xmlns="http://www.w3.org/2000/svg" viewBox="0 0 512 292.57"><defs><style>.cls-1{fill:#fff;}</style></defs><g id="Layer_1-2"><path class="cls-1" d="M0,219.43v36.57h36.57v-36.57H0ZM36.57,109.71v36.57h182.85v-36.57H36.57ZM36.57,256v36.57h182.85v-36.57H36.57Z"/><path class="cls-1" d="M219.43,0v36.57H36.57v73.14H0V36.57C0,16.37,16.37,0,36.57,0h182.85Z"/><path class="cls-1" d="M438.85,109.71v36.57h36.57v-36.57h-36.57ZM475.43,73.14v36.57h36.57v-36.57h-36.57Z"/><path class="cls-1" d="M475.43,36.57v36.57h-36.57v-36.57h-147.28V0h147.28v.07s0-.07,0-.07c20.19,0,36.57,16.37,36.57,36.57Z"/><polygon class="cls-1" points="438.85 146.29 438.85 182.85 256 182.85 256 256 219.43 256 219.43 146.29 256 146.29 256 73.14 219.43 73.14 219.43 36.57 292.57 36.57 292.57 146.29 438.85 146.29"/></g></svg>